# xmcd CD database file
#
# Track frame offsets:
#	150
#	20420
#	32673
#	59309
#	77388
#	88877
#	101373
#	117705
#	137573
#	154024
#
# Disc length: 2356 seconds
#
# Revision: 0
# Processed by: cddbd v1.5.2PL0 Copyright (c) Steve Scherf et al.
# Submitted via: CDex 1.70beta2
#
DISCID=7609320a
DTITLE=Those Delta Rhythm Kings - Let's Do It Like Monkeys
DYEAR=1999
DGENRE=Jazz
TTITLE0=Marlene
TTITLE1=Hop, Skip and Jump
TTITLE2=Goin' to Chicago
TTITLE3=Let's Do It Like Monkeys
TTITLE4=Quiet Whiskey
TTITLE5=That Mellow Saxophone
TTITLE6=What's the Matter with You
TTITLE7=Ain't That Fine
TTITLE8=Bonin'
TTITLE9=If the Shoe fits, Wear It
EXTD=YEAR: 1999
EXTT0=
EXTT1=
EXTT2=
EXTT3=
EXTT4=
EXTT5=
EXTT6=
EXTT7=
EXTT8=
EXTT9=
PLAYORDER=
